<svg width="48" height="36" viewBox="0 0 48 36" fill="none" xmlns="http://www.w3.org/2000/svg">
<g id="Group">
<path id="Vector" d="M24.0969 23.6305L23.0588 23.2439L12.2735 19.2242V23.4307C12.2735 26.6755 17.5668 29.3057 24.0969 29.3057C30.627 29.3057 35.9204 26.6755 35.9204 23.4307V19.2242L25.135 23.2439L24.0969 23.6305Z" fill="url(#paint0_linear_1_182)"/>
<path id="Vector_2" d="M44.788 12.7823L47.0792 11.9285C47.479 11.7795 47.7438 11.3996 47.7438 10.9753V9.44875C47.7438 9.0244 47.479 8.64457 47.0792 8.49557L24.4566 0.0648164C24.2247 -0.0216055 23.9692 -0.0216055 23.7373 0.0648164L1.11478 8.49557C0.71497 8.64457 0.450098 9.0244 0.450098 9.44875V10.9753C0.450098 11.3996 0.71497 11.7795 1.11478 11.9285L24.097 20.4933L41.8321 13.8839V17.0212V22.3698C40.9525 22.8785 40.3542 23.815 40.3542 24.8995C40.3542 25.984 40.9525 26.9205 41.8321 27.4293L39.2076 33.0078C38.9857 33.4795 39.1552 34.042 39.6032 34.312C40.5006 34.853 41.8515 35.1808 43.3101 35.1808C44.7686 35.1808 46.1195 34.853 47.0169 34.312C47.4649 34.042 47.6344 33.4795 47.4125 33.0078L44.788 27.4293C45.6677 26.9205 46.2659 25.984 46.2659 24.8995C46.2659 23.815 45.6677 22.8785 44.788 22.3698V15.9196V12.7823Z" fill="url(#paint1_linear_1_182)"/>
</g>
<defs>
<linearGradient id="paint0_linear_1_182" x1="24.0969" y1="19.2242" x2="24.0969" y2="29.3057" gradientUnits="userSpaceOnUse">
<stop stop-color="#F57D28"/>
<stop offset="1" stop-color="white"/>
</linearGradient>
<linearGradient id="paint1_linear_1_182" x1="24.097" y1="0" x2="24.097" y2="35.1808" gradientUnits="userSpaceOnUse">
<stop stop-color="#F57D28"/>
<stop offset="1" stop-color="white"/>
</linearGradient>
</defs>
</svg>
