<svg width="31" height="37" viewBox="0 0 31 37" fill="none" xmlns="http://www.w3.org/2000/svg">
<g id="student-with-graduation-cap">
<g id="Layer_2_9_">
<g id="Group 17">
<g id="Group 23">
<path id="Path 150433" d="M4.33049 6.25865C4.68191 6.45518 7.04736 7.59086 8.19013 8.13772C8.19461 8.57852 8.20442 9.34079 8.21949 9.35373C8.34544 10.4453 8.56164 11.6579 8.62427 12.0004C8.52037 12.0576 7.98633 12.4047 7.98633 13.4841C7.98681 13.4902 7.98735 13.4958 7.98782 13.502C7.98704 13.5303 7.98633 13.5588 7.98633 13.5882C8.21619 16.5885 9.41689 15.2954 9.66448 16.6096C10.0763 18.7947 12.0232 20.3757 13.235 20.9214C13.9354 21.2367 14.6562 21.3976 15.4138 21.413C16.1713 21.3976 16.8921 21.2367 17.5925 20.9214C18.8044 20.3757 20.7512 18.7947 21.1631 16.6096C21.4107 15.2954 22.6114 16.5885 22.8413 13.5882C22.8413 13.5588 22.8405 13.5303 22.8397 13.502C22.8402 13.4959 22.8407 13.4903 22.8413 13.4841C22.8413 12.4046 22.3071 12.0576 22.2033 12.0004C22.266 11.6579 22.4822 10.4454 22.6081 9.35373C22.623 9.34079 22.6329 8.5786 22.6374 8.13772C23.2651 7.83731 24.2612 7.35947 25.0903 6.95704V9.85739C24.86 9.99246 24.6981 10.2309 24.6981 10.5152C24.6981 10.7668 24.8267 10.98 25.014 11.121C25.014 11.121 24.6809 12.9814 24.5733 13.5286C24.4656 14.0756 26.4725 13.9659 26.3822 13.5286C26.2919 13.0911 25.9417 11.121 25.9417 11.121C26.1291 10.98 26.2575 10.7668 26.2575 10.5152C26.2575 10.2308 26.0963 9.99254 25.8663 9.85739V6.57809C26.1752 6.42578 26.4052 6.30996 26.497 6.25865C26.7457 6.11959 26.8795 5.9417 26.8513 5.75686C26.8853 5.56415 26.745 5.35701 26.3687 5.17389C23.683 3.86741 16.8361 0.537503 16.1591 0.216576C15.8637 0.0765856 15.6206 0.01474 15.4138 0C15.207 0.01474 14.9639 0.0765856 14.6685 0.216576C13.9915 0.537503 7.14451 3.86749 4.45888 5.17389C4.08243 5.35701 3.94227 5.56415 3.97633 5.75686C3.94792 5.9417 4.08188 6.11959 4.33049 6.25865Z" fill="url(#paint0_linear_1_174)"/>
<path id="Path 150434" d="M24.529 25.0257C23.2654 24.5729 21.0662 23.2677 20.6894 23.0663C20.5917 23.01 20.4786 22.9771 20.3575 22.9771C20.0931 22.9771 19.8655 23.1312 19.7596 23.3544C18.7178 25.0875 16.7864 30.1274 15.4388 30.2209C15.4306 30.2203 15.4221 30.2187 15.4138 30.2177C15.4054 30.2187 15.397 30.2203 15.3887 30.2209C14.0411 30.1274 12.1097 25.0875 11.068 23.3544C10.9619 23.1312 10.7344 22.9771 10.47 22.9771C10.3489 22.9771 10.2358 23.01 10.1381 23.0663C9.76131 23.2677 7.562 24.5729 6.29852 25.0257C2.05748 26.5454 0.150024 28.0953 0.150024 29.1521C0.150024 29.1827 0.150024 29.2178 0.150024 29.2561C0.150024 30.5433 0.150024 36.0754 0.150024 36.0754C0.150024 36.1428 0.150024 36.1795 0.150024 36.1795H15.3887H15.4138H15.4388H30.6775C30.6775 36.1795 30.6775 36.1428 30.6775 36.0754C30.6775 36.0754 30.6775 30.5431 30.6775 29.2561C30.6775 29.2178 30.6775 29.1827 30.6775 29.1521C30.6774 28.0952 28.77 26.5454 24.529 25.0257Z" fill="url(#paint1_linear_1_174)"/>
</g>
</g>
</g>
</g>
<defs>
<linearGradient id="paint0_linear_1_174" x1="15.2438" y1="8" x2="31.7265" y2="27.6013" gradientUnits="userSpaceOnUse">
<stop stop-color="#F68E44"/>
<stop offset="1" stop-color="white"/>
</linearGradient>
<linearGradient id="paint1_linear_1_174" x1="14.2375" y1="26.5001" x2="16.6851" y2="36.3886" gradientUnits="userSpaceOnUse">
<stop stop-color="#F68230"/>
<stop offset="1" stop-color="white"/>
</linearGradient>
</defs>
</svg>
