<svg width="33" height="36" viewBox="0 0 33 36" fill="none" xmlns="http://www.w3.org/2000/svg">
<path id="teacher" d="M19.6698 29.9902L17.6308 31.9858C17.4295 32.1837 17.1559 32.295 16.8706 32.295C16.5852 32.295 16.3117 32.1837 16.1104 31.9858L14.0596 29.9902C13.7665 29.7181 13.6568 29.3066 13.7767 28.929L15.3914 22.7462C15.4958 22.3766 15.8365 22.1184 16.2282 22.1118L17.4776 22.1118C17.8722 22.1104 18.2171 22.372 18.3144 22.7462L19.9291 28.929C20.0521 29.3024 19.9521 29.7117 19.6698 29.9902ZM23.5121 21.3159C22.4745 20.9631 21.7917 19.9911 21.8267 18.9166C25.9478 16.6996 28.0117 12.0326 26.8423 7.57477C25.673 3.11691 21.5673 -7.61421e-07 16.8647 0C12.1621 -7.61421e-07 8.05641 3.11691 6.88706 7.57477C5.71772 12.0326 7.78158 16.6996 11.9027 18.9166C11.9253 19.9786 11.2512 20.9356 10.229 21.2928C4.83094 23.1499 0.800049 27.0603 0.800049 31.386V33.693C0.799271 34.9362 1.80525 35.9565 3.07479 36H30.6428C31.9176 36.0006 32.9618 35.0092 33 33.7622V31.4552C32.9411 27.1641 28.8631 23.2192 23.5121 21.3159Z" fill="url(#paint0_linear_1_180)"/>
<defs>
<linearGradient id="paint0_linear_1_180" x1="16.9" y1="2.11928e-07" x2="24.8529" y2="49.5156" gradientUnits="userSpaceOnUse">
<stop stop-color="#F68E44"/>
<stop offset="1" stop-color="white"/>
</linearGradient>
</defs>
</svg>
